P2
 40  60
  255
         128
         128
         128
         128
         128
         128
         128
         128
         128
         128
         128
         128
         128
         128
         128
         128
         128
         128
         128
         128
         128
         128
         128
         128
         128
         128
         128
         128
         128
         128
         128
         128
         128
         128
         128
         128
         128
         128
         128
           0
         128
         128
         128
         128
         128
         128
         128
         128
         128
         128
         128
         128
         128
         128
         128
         128
         128
         128
         128
         128
         128
         128
         128
         128
         128
         128
         128
         128
         128
         128
         128
         128
         128
         128
         128
         128
         128
         128
         128
           0
         128
         128
         128
         128
         128
         128
         128
         128
         128
         128
         128
         128
         128
         128
         128
         128
         128
         128
         128
         128
         128
         128
         128
         128
         128
         128
         128
         128
         128
         128
         128
         128
         128
         128
         128
         128
         128
         128
         128
           0
         128
         128
         128
         128
         128
         128
         128
         128
         128
         128
         128
         128
         128
         128
         128
         128
         128
         128
         128
         128
         128
         128
         128
         128
         128
         128
         128
         128
         128
         128
         128
         128
         128
         128
         128
         128
         128
         128
         128
           0
         128
         128
         128
         128
         128
         128
         128
         128
         128
         128
         128
         128
         128
         128
         128
         128
         128
         128
         128
         128
         128
         128
         128
         128
         128
         128
         128
         128
         128
         128
         128
         128
         128
         128
         128
         128
         128
         128
         128
           0
         128
         128
         128
         128
         128
         128
         128
         128
         128
         128
         128
         128
         128
         128
         128
         128
         128
         128
         128
         128
         128
         128
         128
         128
         128
         128
         128
         128
         128
         128
         128
         128
         128
         128
         128
         128
         128
         128
         128
           0
         128
         128
         128
         128
         128
         128
         128
         128
         128
         128
         128
         128
         128
         128
         128
         128
         128
         128
         128
         128
         128
         128
         128
         128
         128
         128
         128
         128
         128
         128
         128
         128
         128
         128
         128
         128
         128
         128
         128
           0
         128
         128
         128
         128
         128
         128
         128
         128
         128
         128
         128
         128
         128
         128
         128
         128
         128
         128
         128
         128
         128
         128
         128
         128
         128
         128
         128
         128
         128
         128
         128
         128
         128
         128
         128
         128
         128
         128
         128
           0
         128
         128
         128
         128
         128
         128
         128
         128
         128
         128
         128
         128
         128
         128
         128
         128
         128
         128
         128
         128
         128
         128
         128
         128
         128
         128
         128
         128
         128
         128
         128
         128
         128
         128
         128
         128
         128
         128
         128
           0
         128
         128
         128
         128
         128
         128
         128
         128
         128
         128
         128
         128
         128
         128
         128
         128
         128
         128
         128
         128
         128
         128
         128
         128
         128
         128
         128
         128
         128
         128
         128
         128
         128
         128
         128
         128
         128
         128
         128
           0
         128
         128
         128
         128
         128
         128
         128
         128
         128
         128
         128
         128
         128
         128
         128
         128
         128
         128
         128
         128
         128
         128
         128
         128
         128
         128
         128
         128
         128
         128
         128
         128
         128
         128
         128
         128
         128
         128
         128
           0
         128
         128
         128
         128
         128
         128
         128
         128
         128
         128
         128
         128
         128
         128
         128
         128
         128
         128
         128
         128
         128
         128
         128
         128
         128
         128
         128
         128
         128
         128
         128
         128
         128
         128
         128
         128
         128
         128
         128
           0
         128
         128
         128
         128
         128
         128
         128
         128
         128
         128
         128
         128
         128
         128
         128
         128
         128
         128
         128
         128
         128
         128
         128
         128
         128
         128
         128
         128
         128
         128
         128
         128
         128
         128
         128
         128
         128
         128
         128
           0
         128
         128
         128
         128
         128
         128
         128
         128
         128
         128
         128
         128
         128
         128
         128
         128
         128
         128
         128
         128
         128
         128
         128
         128
         128
         128
         128
         128
         128
         128
         128
         128
         128
         128
         128
         128
         128
         128
         128
           0
         128
         128
         128
         128
         128
         128
         128
         128
         128
         128
         128
         128
         128
         128
         128
         128
         128
         128
         128
         128
         128
         128
         128
         128
         128
         128
         128
         128
         128
         128
         128
         128
         128
         128
         128
         128
         128
         128
         128
           0
         128
         128
         128
         128
         128
         128
         128
         128
         128
         128
         128
         128
         128
         128
         128
         128
         128
         128
         128
         128
         128
         128
         128
         128
         128
         128
         128
         128
         128
         128
         128
         128
         128
         128
         128
         128
         128
         128
         128
           0
         128
         128
         128
         128
         128
         128
         128
         128
         128
         128
         128
         128
         128
         128
         128
         128
         128
         128
         128
         128
         128
         128
         128
         128
         128
         128
         128
         128
         128
         128
         128
         128
         128
         128
         128
         128
         128
         128
         128
           0
         128
         128
         128
         128
         128
         128
         128
         128
         128
         128
         128
         128
         128
         128
         128
         128
         128
         128
         128
         128
         128
         128
         128
         128
         128
         128
         128
         128
         128
         128
         128
         128
         128
         128
         128
         128
         128
         128
         128
           0
         128
         128
         128
         128
         128
         128
         128
         128
         128
         128
         128
         128
         128
         128
         128
         128
         128
         128
         128
         128
         128
         128
         128
         128
         128
         128
         128
         128
         128
         128
         128
         128
         128
         128
         128
         128
         128
         128
         128
           0
         128
         128
         128
         128
         128
         128
         128
         128
         128
         128
         128
         128
         128
         128
         128
         128
         128
         128
         128
         128
         128
         128
         128
         128
         128
         128
         128
         128
         128
         128
         128
         128
         128
         128
         128
         128
         128
         128
         128
           0
         128
         128
         128
         128
         128
         128
         128
         128
         128
         128
         128
         128
         128
         128
         128
         128
         128
         128
         128
         128
         128
         128
         128
         128
         128
         128
         128
         128
         128
         128
         128
         128
         128
         128
         128
         128
         128
         128
         128
           0
         128
         128
         128
         128
         128
         128
         128
         128
         128
         128
         128
         128
         128
         128
         128
         128
         128
         128
         128
         128
         128
         128
         128
         128
         128
         128
         128
         128
         128
         128
         128
         128
         128
         128
         128
         128
         128
         128
         128
           0
         128
         128
         128
         128
         128
         128
         128
         128
         128
         128
         128
         128
         128
         128
         128
         128
         128
         128
         128
         128
         128
         128
         128
         128
         128
         128
         128
         128
         128
         128
         129
         129
         129
         129
         128
         128
         128
         128
         128
           0
         128
         128
         128
         128
         128
         128
         128
         128
         128
         128
         128
         128
         128
         128
         128
         128
         128
         128
         128
         128
         128
         128
         128
         128
         128
         128
         128
         128
         129
         130
         130
         131
         130
         130
         129
         128
         128
         128
         128
           0
         128
         128
         128
         128
         128
         128
         128
         128
         128
         128
         128
         128
         128
         128
         128
         128
         128
         128
         128
         128
         128
         128
         128
         128
         128
         128
         128
         129
         130
         131
         132
         133
         133
         132
         130
         129
         128
         128
         128
           0
         128
         128
         128
         128
         128
         128
         128
         128
         128
         128
         128
         128
         128
         128
         128
         128
         128
         128
         128
         128
         128
         128
         128
         128
         128
         128
         128
         129
         131
         133
         135
         137
         136
         134
         132
         130
         129
         128
         128
           0
         128
         128
         128
         128
         128
         128
         128
         128
         128
         128
         128
         128
         128
         128
         128
         128
         128
         128
         128
         128
         128
         128
         128
         128
         128
         128
         129
         130
         132
         135
         139
         144
         142
         137
         133
         131
         129
         128
         128
           0
         128
         128
         128
         128
         128
         128
         128
         128
         128
         128
         128
         128
         128
         128
         128
         128
         128
         128
         128
         128
         128
         128
         128
         128
         128
         128
         129
         130
         132
         136
         142
         158
         148
         139
         134
         131
         129
         128
         128
           0
         128
         128
         128
         128
         128
         128
         128
         128
         128
         128
         128
         128
         128
         128
         128
         128
         128
         128
         128
         128
         128
         128
         128
         128
         128
         128
         129
         130
         132
         135
         139
         144
         142
         137
         133
         131
         129
         128
         128
           0
         128
         128
         128
         128
         128
         128
         128
         128
         128
         128
         128
         128
         128
         128
         128
         128
         128
         128
         128
         128
         128
         128
         128
         128
         128
         128
         128
         129
         131
         133
         135
         137
         136
         134
         132
         130
         129
         128
         128
           0
         128
         128
         128
         128
         128
         128
         128
         128
         128
         128
         128
         128
         128
         128
         128
         128
         128
         128
         128
         128
         128
         128
         128
         128
         128
         128
         128
         129
         130
         131
         132
         133
         133
         132
         130
         129
         128
         128
         128
           0
         128
         128
         128
         128
         128
         128
         128
         128
         128
         128
         128
         128
         128
         128
         128
         128
         128
         128
         128
         128
         128
         128
         128
         128
         128
         128
         128
         128
         129
         129
         130
         131
         130
         130
         129
         128
         128
         128
         128
           0
         128
         128
         128
         128
         128
         128
         128
         128
         128
         128
         128
         128
         128
         128
         128
         128
         128
         128
         128
         128
         128
         128
         128
         128
         128
         128
         128
         128
         128
         128
         129
         129
         129
         129
         128
         128
         128
         128
         128
           0
         128
         128
         128
         128
         128
         128
         128
         128
         128
         128
         128
         128
         128
         128
         128
         128
         128
         128
         128
         128
         128
         128
         128
         128
         128
         128
         128
         128
         128
         128
         128
         128
         128
         128
         128
         128
         128
         128
         128
           0
         128
         128
         128
         128
         128
         128
         128
         128
         128
         128
         128
         128
         128
         128
         128
         128
         128
         128
         128
         128
         128
         128
         128
         128
         128
         128
         128
         128
         128
         128
         128
         128
         128
         128
         128
         128
         128
         128
         128
           0
         128
         128
         128
         128
         128
         128
         128
         128
         128
         128
         128
         128
         128
         128
         128
         128
         128
         128
         128
         128
         128
         128
         128
         128
         128
         128
         128
         128
         128
         128
         128
         128
         128
         128
         128
         128
         128
         128
         128
           0
         128
         128
         128
         128
         128
         128
         128
         128
         128
         128
         128
         128
         128
         128
         128
         128
         127
         127
         128
         128
         128
         128
         128
         128
         128
         128
         128
         128
         128
         128
         128
         128
         128
         128
         128
         128
         128
         128
         128
           0
         128
         128
         128
         128
         128
         128
         128
         128
         128
         128
         128
         127
         127
         127
         127
         127
         127
         127
         127
         127
         127
         128
         128
         128
         128
         128
         128
         128
         128
         128
         128
         128
         128
         128
         128
         128
         128
         128
         128
           0
         128
         128
         128
         128
         128
         128
         128
         128
         128
         128
         127
         127
         127
         127
         127
         127
         126
         127
         127
         127
         127
         127
         127
         128
         128
         128
         128
         128
         128
         128
         128
         128
         128
         128
         128
         128
         128
         128
         128
           0
         128
         128
         128
         128
         128
         128
         128
         128
         128
         127
         127
         127
         126
         126
         126
         125
         125
         125
         126
         126
         126
         127
         127
         127
         128
         128
         128
         128
         128
         128
         128
         128
         128
         128
         128
         128
         128
         128
         128
           0
         128
         128
         128
         128
         128
         128
         128
         128
         127
         127
         127
         126
         125
         125
         124
         124
         123
         124
         124
         125
         125
         126
         127
         127
         127
         128
         128
         128
         128
         128
         128
         128
         128
         128
         128
         128
         128
         128
         128
           0
         128
         128
         128
         128
         128
         128
         128
         127
         127
         127
         126
         125
         124
         123
         122
         121
         121
         121
         122
         123
         124
         125
         126
         127
         127
         127
         128
         128
         128
         128
         128
         128
         128
         128
         128
         128
         128
         128
         128
           0
         128
         128
         128
         128
         128
         128
         128
         127
         127
         126
         125
         124
         122
         121
         119
         118
         117
         118
         119
         121
         122
         124
         125
         126
         127
         127
         128
         128
         128
         128
         128
         128
         128
         128
         128
         128
         128
         128
         128
           0
         128
         128
         128
         128
         128
         128
         127
         127
         127
         126
         124
         123
         120
         118
         115
         113
         113
         113
         115
         118
         120
         122
         124
         126
         127
         127
         127
         128
         128
         128
         128
         128
         128
         128
         128
         128
         128
         128
         128
           0
         128
         128
         128
         128
         128
         128
         127
         127
         126
         125
         123
         121
         118
         115
         111
         107
         106
         107
         111
         115
         118
         121
         123
         125
         126
         127
         127
         128
         128
         128
         128
         128
         128
         128
         128
         128
         128
         128
         128
           0
         128
         128
         128
         128
         128
         128
         127
         127
         126
         125
         123
         120
         116
         112
         106
          99
          95
          99
         106
         112
         116
         120
         123
         125
         126
         127
         127
         128
         128
         128
         128
         128
         128
         128
         128
         128
         128
         128
         128
           0
         128
         128
         128
         128
         128
         128
         127
         127
         126
         124
         122
         119
         115
         110
         102
          88
          71
          88
         102
         110
         115
         119
         122
         124
         126
         127
         127
         128
         128
         128
         128
         128
         128
         128
         128
         128
         128
         128
         128
           0
         128
         128
         128
         128
         128
         128
         127
         127
         126
         124
         122
         119
         115
         110
         102
          88
          71
          88
         102
         110
         115
         119
         122
         124
         126
         127
         127
         128
         128
         128
         128
         128
         128
         128
         128
         128
         128
         128
         128
           0
         128
         128
         128
         128
         128
         128
         127
         127
         126
         125
         123
         120
         116
         112
         106
          99
          95
          99
         106
         112
         116
         120
         123
         125
         126
         127
         127
         128
         128
         128
         128
         128
         128
         128
         128
         128
         128
         128
         128
           0
         128
         128
         128
         128
         128
         128
         127
         127
         126
         125
         123
         121
         118
         115
         111
         107
         106
         107
         111
         115
         118
         121
         123
         125
         126
         127
         127
         128
         128
         128
         128
         128
         128
         128
         128
         128
         128
         128
         128
           0
         128
         128
         128
         128
         128
         128
         127
         127
         127
         126
         124
         122
         120
         118
         115
         113
         113
         113
         115
         118
         120
         123
         124
         126
         127
         127
         127
         128
         128
         128
         128
         128
         128
         128
         128
         128
         128
         128
         128
           0
         128
         128
         128
         128
         128
         128
         128
         127
         127
         126
         125
         124
         122
         121
         119
         118
         117
         118
         119
         121
         122
         124
         125
         126
         127
         127
         128
         128
         128
         128
         128
         128
         128
         128
         128
         128
         128
         128
         128
           0
         128
         128
         128
         128
         128
         128
         128
         127
         127
         127
         126
         125
         124
         123
         122
         121
         121
         121
         122
         123
         124
         125
         126
         127
         127
         127
         128
         128
         128
         128
         128
         128
         128
         128
         128
         128
         128
         128
         128
           0
         128
         128
         128
         128
         128
         128
         128
         128
         127
         127
         127
         126
         125
         125
         124
         124
         123
         124
         124
         125
         125
         126
         127
         127
         127
         128
         128
         128
         128
         128
         128
         128
         128
         128
         128
         128
         128
         128
         128
           0
         128
         128
         128
         128
         128
         128
         128
         128
         128
         127
         127
         127
         126
         126
         126
         125
         125
         125
         126
         126
         126
         127
         127
         127
         128
         128
         128
         128
         128
         128
         128
         128
         128
         128
         128
         128
         128
         128
         128
           0
         128
         128
         128
         128
         128
         128
         128
         128
         128
         128
         127
         127
         127
         127
         127
         127
         126
         127
         127
         127
         127
         127
         127
         128
         128
         128
         128
         128
         128
         128
         128
         128
         128
         128
         128
         128
         128
         128
         128
           0
         128
         128
         128
         128
         128
         128
         128
         128
         128
         128
         128
         128
         127
         127
         127
         127
         127
         127
         127
         127
         127
         128
         128
         128
         128
         128
         128
         128
         128
         128
         128
         128
         128
         128
         128
         128
         128
         128
         128
           0
         128
         128
         128
         128
         128
         128
         128
         128
         128
         128
         128
         128
         128
         128
         128
         127
         127
         127
         128
         128
         128
         128
         128
         128
         128
         128
         128
         128
         128
         128
         128
         128
         128
         128
         128
         128
         128
         128
         128
           0
         128
         128
         128
         128
         128
         128
         128
         128
         128
         128
         128
         128
         128
         128
         128
         128
         128
         128
         128
         128
         128
         128
         128
         128
         128
         128
         128
         128
         128
         128
         128
         128
         128
         128
         128
         128
         128
         128
         128
           0
           0
           0
           0
           0
           0
           0
           0
           0
           0
           0
           0
           0
           0
           0
           0
           0
           0
           0
           0
           0
           0
           0
           0
           0
           0
           0
           0
           0
           0
           0
           0
           0
           0
           0
           0
           0
           0
           0
           0
           0
