P2
 40  60
  255
           0
           0
           0
           0
           0
           0
           0
           0
           0
           0
           0
           0
           0
           0
           0
           0
           0
           0
           0
           0
           0
           0
           0
           0
           0
           0
           0
           0
           0
           0
           0
           0
           0
           0
           0
           0
           0
           0
           0
           0
           0
         128
         128
         128
         128
         128
         128
         128
         128
         128
         128
         128
         128
         128
         128
         128
         128
         128
         128
         128
         128
         128
         128
         128
         128
         128
         128
         128
         128
         128
         128
         128
         128
         128
         128
         128
         128
         128
         128
         128
           0
         128
         128
         128
         128
         128
         128
         128
         128
         128
         128
         128
         128
         128
         128
         128
         128
         128
         128
         128
         128
         128
         128
         128
         128
         128
         128
         128
         128
         128
         128
         128
         128
         128
         128
         128
         128
         128
         128
         128
           0
         128
         128
         128
         128
         128
         128
         128
         128
         128
         128
         128
         128
         128
         128
         128
         128
         128
         128
         128
         128
         128
         128
         128
         128
         128
         128
         128
         128
         128
         128
         128
         128
         128
         128
         128
         128
         128
         128
         128
           0
         128
         128
         128
         128
         128
         128
         128
         128
         128
         128
         128
         128
         128
         128
         128
         128
         128
         128
         128
         128
         128
         128
         128
         128
         128
         128
         128
         128
         128
         128
         128
         128
         128
         128
         128
         128
         128
         128
         128
           0
         128
         128
         128
         128
         128
         128
         128
         128
         128
         128
         128
         128
         128
         128
         128
         128
         128
         128
         128
         128
         128
         128
         128
         128
         128
         128
         128
         128
         128
         128
         128
         128
         128
         128
         128
         128
         128
         128
         128
           0
         128
         128
         128
         128
         128
         128
         128
         128
         128
         128
         128
         128
         128
         128
         128
         128
         128
         128
         128
         128
         128
         128
         129
         129
         129
         129
         129
         129
         129
         129
         129
         128
         128
         128
         128
         128
         128
         128
         128
           0
         128
         128
         128
         128
         128
         128
         128
         128
         128
         128
         128
         128
         128
         128
         128
         128
         128
         128
         128
         128
         129
         129
         129
         129
         129
         129
         129
         129
         129
         129
         129
         129
         129
         129
         128
         128
         128
         128
         128
           0
         128
         128
         128
         128
         128
         128
         128
         128
         128
         128
         128
         128
         128
         128
         128
         128
         128
         128
         129
         129
         129
         129
         129
         129
         129
         129
         129
         129
         129
         129
         129
         129
         129
         129
         129
         128
         128
         128
         128
           0
         128
         128
         128
         128
         128
         128
         128
         128
         128
         128
         128
         128
         128
         128
         128
         128
         128
         129
         129
         129
         129
         129
         129
         129
         129
         129
         129
         129
         129
         129
         129
         129
         129
         129
         129
         129
         128
         128
         128
           0
         128
         128
         128
         128
         128
         128
         128
         128
         128
         128
         128
         128
         128
         128
         128
         128
         129
         129
         129
         129
         129
         129
         129
         130
         130
         130
         130
         130
         130
         130
         130
         130
         129
         129
         129
         129
         128
         128
         128
           0
         128
         128
         128
         128
         128
         128
         128
         128
         128
         128
         128
         128
         128
         128
         128
         129
         129
         129
         129
         129
         129
         130
         130
         130
         130
         130
         130
         130
         130
         130
         130
         130
         130
         129
         129
         129
         129
         128
         128
           0
         128
         128
         128
         128
         128
         128
         128
         128
         128
         128
         128
         128
         128
         128
         128
         129
         129
         129
         129
         129
         130
         130
         130
         130
         130
         130
         131
         131
         131
         131
         130
         130
         130
         130
         130
         129
         129
         128
         128
           0
         128
         128
         128
         128
         128
         128
         128
         128
         128
         128
         128
         128
         128
         128
         128
         129
         129
         129
         129
         130
         130
         130
         130
         130
         131
         131
         131
         131
         131
         131
         131
         131
         130
         130
         130
         129
         129
         129
         128
           0
         128
         127
         127
         127
         128
         128
         128
         128
         128
         128
         128
         128
         128
         128
         128
         129
         129
         129
         129
         130
         130
         130
         131
         131
         131
         131
         131
         132
         132
         132
         131
         131
         131
         131
         130
         130
         129
         129
         128
           0
         128
         127
         127
         127
         127
         127
         127
         128
         128
         128
         128
         128
         128
         128
         128
         129
         129
         129
         130
         130
         130
         131
         131
         131
         131
         132
         132
         132
         132
         132
         132
         132
         132
         131
         131
         130
         130
         129
         128
           0
         128
         127
         127
         127
         127
         127
         127
         127
         128
         128
         128
         128
         128
         128
         128
         129
         129
         129
         130
         130
         130
         131
         131
         132
         132
         132
         133
         133
         133
         133
         133
         133
         132
         132
         131
         131
         130
         129
         128
           0
         128
         127
         127
         127
         127
         127
         127
         127
         127
         127
         128
         128
         128
         128
         128
         129
         129
         129
         130
         130
         131
         131
         132
         132
         132
         133
         133
         133
         134
         134
         134
         133
         133
         132
         132
         131
         130
         129
         128
           0
         128
         127
         127
         127
         127
         127
         127
         127
         127
         127
         127
         128
         128
         128
         128
         129
         129
         129
         130
         130
         131
         131
         132
         132
         133
         133
         134
         134
         135
         135
         135
         134
         134
         133
         132
         132
         131
         130
         129
           0
         128
         127
         127
         127
         127
         127
         127
         127
         127
         127
         127
         127
         128
         128
         128
         128
         129
         129
         130
         130
         131
         132
         132
         133
         134
         134
         135
         135
         136
         136
         136
         135
         135
         134
         133
         132
         131
         130
         129
           0
         128
         127
         127
         127
         127
         127
         127
         127
         127
         127
         127
         127
         127
         128
         128
         128
         129
         129
         130
         130
         131
         132
         132
         133
         134
         135
         136
         136
         137
         137
         137
         137
         136
         135
         134
         133
         132
         130
         129
           0
         128
         127
         127
         127
         127
         127
         127
         127
         127
         127
         127
         127
         127
         127
         128
         128
         128
         129
         130
         130
         131
         132
         133
         134
         135
         136
         137
         138
         138
         139
         139
         138
         138
         136
         135
         134
         132
         131
         129
           0
         128
         127
         127
         127
         127
         127
         126
         126
         126
         126
         126
         127
         127
         127
         127
         128
         128
         129
         129
         130
         131
         132
         133
         134
         135
         137
         138
         139
         140
         141
         141
         140
         139
         138
         136
         135
         133
         131
         129
           0
         128
         127
         127
         127
         127
         126
         126
         126
         126
         126
         126
         126
         126
         127
         127
         127
         128
         128
         129
         130
         131
         132
         133
         134
         136
         137
         139
         141
         142
         143
         144
         143
         142
         140
         138
         136
         134
         131
         129
           0
         128
         127
         127
         127
         126
         126
         126
         126
         126
         126
         126
         126
         126
         126
         126
         127
         127
         128
         129
         130
         131
         132
         133
         135
         136
         138
         140
         142
         145
         147
         147
         146
         144
         142
         139
         136
         134
         132
         130
           0
         128
         127
         127
         126
         126
         126
         126
         125
         125
         125
         125
         125
         125
         125
         126
         126
         127
         127
         128
         129
         130
         132
         133
         135
         137
         139
         141
         144
         148
         151
         153
         151
         147
         144
         140
         137
         135
         132
         130
           0
         128
         127
         127
         126
         126
         125
         125
         125
         125
         125
         124
         124
         125
         125
         125
         126
         126
         127
         128
         129
         130
         131
         133
         134
         136
         139
         142
         146
         150
         157
         163
         156
         150
         145
         141
         138
         135
         132
         130
           0
         128
         127
         126
         126
         126
         125
         125
         124
         124
         124
         124
         124
         124
         124
         124
         125
         125
         126
         127
         128
         129
         130
         132
         134
         136
         139
         142
         146
         152
         162
         185
         162
         152
         146
         141
         138
         135
         132
         130
           0
         128
         127
         126
         126
         125
         125
         124
         124
         123
         123
         123
         123
         123
         123
         123
         124
         124
         125
         126
         127
         128
         129
         131
         133
         135
         138
         141
         145
         149
         156
         162
         156
         150
         145
         141
         137
         135
         132
         130
           0
         128
         127
         126
         125
         125
         124
         124
         123
         123
         122
         122
         122
         122
         122
         122
         123
         123
         124
         125
         126
         127
         128
         130
         132
         134
         136
         139
         142
         146
         149
         151
         149
         146
         143
         139
         137
         134
         132
         130
           0
         128
         127
         126
         125
         124
         124
         123
         122
         122
         121
         121
         121
         121
         121
         121
         121
         122
         123
         123
         124
         126
         127
         128
         130
         132
         134
         137
         139
         142
         144
         145
         144
         142
         140
         138
         135
         133
         131
         129
           0
         128
         127
         126
         125
         124
         123
         122
         122
         121
         120
         120
         120
         120
         120
         120
         120
         120
         121
         122
         123
         124
         125
         127
         129
         130
         132
         134
         136
         138
         140
         140
         140
         139
         138
         136
         134
         133
         131
         129
           0
         128
         126
         125
         124
         123
         123
         122
         121
         120
         119
         119
         118
         118
         118
         118
         118
         119
         119
         120
         121
         122
         124
         125
         127
         128
         130
         132
         134
         135
         136
         137
         137
         136
         135
         134
         133
         132
         130
         129
           0
         128
         126
         125
         124
         123
         122
         121
         120
         119
         118
         118
         117
         117
         116
         116
         117
         117
         118
         118
         119
         121
         122
         123
         125
         126
         128
         130
         131
         132
         133
         134
         134
         134
         133
         133
         132
         131
         130
         129
           0
         128
         126
         125
         124
         122
         121
         120
         119
         118
         117
         116
         115
         115
         115
         114
         115
         115
         116
         116
         117
         119
         120
         121
         123
         124
         126
         127
         129
         130
         131
         132
         132
         132
         132
         131
         131
         130
         129
         128
           0
         128
         126
         125
         123
         122
         120
         119
         118
         117
         115
         114
         114
         113
         113
         112
         112
         113
         113
         114
         115
         116
         118
         119
         121
         122
         124
         125
         127
         128
         129
         130
         130
         130
         130
         130
         130
         129
         129
         128
           0
         128
         126
         124
         123
         121
         120
         118
         117
         115
         114
         113
         112
         111
         110
         110
         110
         110
         111
         112
         113
         114
         116
         117
         119
         120
         122
         123
         125
         126
         127
         128
         128
         129
         129
         129
         129
         128
         128
         128
           0
         128
         126
         124
         122
         120
         119
         117
         115
         114
         112
         111
         109
         108
         108
         107
         107
         107
         108
         109
         110
         112
         113
         115
         117
         118
         120
         121
         123
         124
         125
         126
         127
         127
         128
         128
         128
         128
         128
         128
           0
         128
         126
         124
         122
         120
         118
         116
         114
         112
         110
         109
         107
         106
         105
         104
         104
         104
         105
         106
         108
         109
         111
         113
         115
         116
         118
         120
         121
         122
         124
         125
         125
         126
         127
         127
         127
         127
         127
         127
           0
         128
         125
         123
         121
         119
         117
         115
         113
         110
         108
         106
         104
         103
         101
         101
         100
         101
         102
         103
         105
         106
         108
         111
         113
         114
         116
         118
         120
         121
         122
         123
         124
         125
         126
         126
         127
         127
         127
         127
           0
         128
         125
         123
         121
         118
         116
         114
         111
         109
         106
         104
         102
          99
          98
          96
          96
          96
          98
          99
         101
         104
         106
         108
         111
         113
         115
         117
         118
         120
         121
         122
         123
         124
         125
         125
         126
         126
         127
         127
           0
         128
         125
         123
         120
         118
         115
         113
         110
         107
         104
         101
          98
          96
          93
          92
          91
          92
          93
          95
          98
         101
         104
         106
         109
         111
         113
         115
         117
         119
         120
         121
         122
         123
         124
         125
         126
         126
         127
         127
           0
         128
         125
         123
         120
         117
         115
         112
         109
         106
         102
          99
          95
          92
          88
          86
          85
          86
          88
          91
          95
          98
         101
         104
         107
         110
         112
         114
         116
         118
         119
         120
         122
         123
         124
         124
         125
         126
         126
         127
           0
         128
         125
         122
         120
         117
         114
         111
         108
         104
         100
          96
          92
          87
          82
          78
          76
          78
          82
          87
          91
          95
          99
         103
         106
         108
         111
         113
         115
         117
         118
         120
         121
         122
         123
         124
         125
         126
         126
         127
           0
         128
         125
         122
         119
         117
         114
         110
         107
         103
          99
          94
          89
          83
          76
          69
          65
          69
          75
          82
          88
          93
          97
         101
         105
         108
         110
         112
         114
         116
         118
         119
         121
         122
         123
         124
         125
         125
         126
         127
           0
         128
         125
         122
         119
         116
         113
         110
         107
         103
          98
          93
          87
          79
          69
          57
          44
          56
          69
          78
          86
          91
          96
         100
         104
         107
         110
         112
         114
         116
         118
         119
         120
         122
         123
         124
         124
         125
         126
         127
           0
         128
         125
         122
         119
         116
         113
         110
         107
         102
          98
          92
          86
          77
          65
          45
           0
          44
          65
          76
          85
          91
          96
         100
         104
         107
         109
         112
         114
         116
         117
         119
         120
         121
         122
         123
         124
         125
         126
         127
           0
         128
         125
         122
         120
         117
         114
         110
         107
         103
          98
          93
          87
          79
          70
          57
          45
          57
          69
          78
          86
          92
          96
         101
         104
         107
         110
         112
         114
         116
         117
         119
         120
         121
         122
         123
         124
         125
         126
         127
           0
         128
         125
         122
         120
         117
         114
         111
         108
         104
         100
          95
          90
          83
          77
          70
          65
          69
          76
          83
          88
          93
          98
         101
         105
         108
         110
         112
         114
         116
         118
         119
         120
         121
         122
         123
         124
         125
         126
         127
           0
         128
         125
         123
         120
         118
         115
         112
         109
         105
         102
          98
          93
          88
          84
          80
          78
          79
          83
          87
          92
          96
         100
         103
         106
         108
         111
         113
         115
         116
         118
         119
         120
         122
         123
         123
         124
         125
         126
         127
           0
         128
         125
         123
         121
         118
         116
         113
         110
         107
         104
         100
          97
          93
          90
          87
          86
          87
          89
          92
          96
          99
         102
         105
         107
         110
         112
         114
         115
         117
         118
         120
         121
         122
         123
         124
         124
         125
         126
         127
           0
         128
         125
         123
         121
         119
         117
         114
         112
         109
         106
         103
         101
          98
          95
          94
          93
          93
          95
          97
          99
         102
         104
         107
         109
         111
         113
         115
         116
         118
         119
         120
         121
         122
         123
         124
         125
         125
         126
         127
           0
         128
         126
         124
         122
         120
         118
         116
         113
         111
         109
         106
         104
         102
         100
          99
          99
          99
         100
         101
         103
         105
         107
         109
         111
         113
         114
         116
         117
         118
         120
         121
         122
         123
         123
         124
         125
         126
         126
         127
           0
         128
         126
         124
         122
         121
         119
         117
         115
         113
         111
         109
         108
         106
         105
         104
         103
         103
         104
         105
         107
         108
         110
         111
         113
         114
         116
         117
         118
         119
         120
         121
         122
         123
         124
         124
         125
         126
         126
         127
           0
         128
         126
         125
         123
         122
         120
         118
         117
         115
         114
         112
         111
         110
         109
         108
         108
         108
         108
         109
         110
         111
         112
         114
         115
         116
         117
         118
         119
         120
         121
         122
         123
         124
         124
         125
         125
         126
         126
         127
           0
         128
         126
         125
         124
         123
         121
         120
         119
         117
         116
         115
         114
         113
         112
         112
         111
         111
         112
         112
         113
         114
         115
         116
         117
         118
         119
         120
         121
         121
         122
         123
         124
         124
         125
         125
         126
         126
         127
         127
           0
         128
         127
         126
         125
         124
         123
         121
         120
         119
         118
         118
         117
         116
         115
         115
         115
         115
         115
         116
         116
         117
         117
         118
         119
         120
         121
         121
         122
         123
         123
         124
         124
         125
         125
         126
         126
         126
         127
         127
           0
         128
         127
         126
         125
         125
         124
         123
         122
         122
         121
         120
         120
         119
         119
         118
         118
         118
         118
         119
         119
         120
         120
         121
         121
         122
         122
         123
         123
         124
         124
         125
         125
         125
         126
         126
         126
         127
         127
         127
           0
         128
         127
         127
         126
         126
         125
         125
         124
         124
         123
         123
         122
         122
         122
         121
         121
         121
         121
         122
         122
         122
         123
         123
         123
         124
         124
         124
         125
         125
         125
         126
         126
         126
         126
         127
         127
         127
         127
         127
           0
         128
         127
         127
         127
         127
         126
         126
         126
         126
         125
         125
         125
         125
         125
         125
         124
         124
         125
         125
         125
         125
         125
         125
         125
         126
         126
         126
         126
         126
         126
         127
         127
         127
         127
         127
         127
         127
         127
         127
