P2
 40  60
  255
           0
           0
           0
           0
           0
           0
           0
           0
           0
           0
           0
           0
           0
           0
           0
           0
           0
           0
           0
           0
           0
           0
           0
           0
           0
           0
           0
           0
           0
           0
           0
           0
           0
           0
           0
           0
           0
           0
           0
           0
           0
         128
         128
         128
         128
         128
         128
         128
         128
         128
         128
         128
         128
         128
         128
         128
         128
         128
         128
         128
         128
         128
         128
         128
         128
         128
         128
         128
         128
         128
         128
         128
         128
         128
         128
         128
         128
         128
         128
         128
           0
         128
         128
         128
         128
         128
         128
         128
         128
         128
         128
         128
         128
         128
         128
         128
         128
         128
         128
         128
         128
         128
         128
         128
         128
         128
         128
         128
         128
         128
         128
         128
         128
         128
         128
         128
         128
         128
         128
         128
           0
         128
         128
         128
         128
         128
         128
         128
         128
         128
         128
         128
         128
         128
         128
         128
         128
         128
         128
         128
         128
         128
         128
         128
         128
         128
         128
         128
         128
         128
         128
         128
         128
         128
         128
         128
         128
         128
         128
         128
           0
         128
         128
         128
         128
         128
         128
         128
         128
         128
         128
         128
         128
         128
         128
         128
         128
         128
         128
         128
         128
         128
         128
         128
         128
         128
         128
         128
         128
         128
         128
         128
         128
         128
         128
         128
         128
         128
         128
         128
           0
         128
         128
         128
         128
         128
         128
         128
         128
         128
         128
         128
         128
         128
         128
         128
         128
         128
         128
         128
         128
         128
         128
         128
         128
         128
         128
         128
         128
         128
         128
         128
         128
         128
         128
         128
         128
         128
         128
         128
           0
         128
         128
         128
         128
         128
         128
         128
         128
         128
         128
         128
         128
         128
         128
         128
         128
         128
         128
         128
         128
         128
         128
         129
         129
         129
         129
         129
         129
         129
         129
         129
         128
         128
         128
         128
         128
         128
         128
         128
           0
         128
         128
         128
         128
         128
         128
         128
         128
         128
         128
         128
         128
         128
         128
         128
         128
         128
         128
         128
         129
         129
         129
         129
         129
         129
         129
         129
         129
         129
         129
         129
         129
         129
         128
         128
         128
         128
         128
         128
           0
         128
         128
         128
         128
         128
         128
         128
         128
         128
         128
         128
         128
         128
         128
         128
         128
         128
         129
         129
         129
         129
         129
         129
         129
         129
         129
         129
         129
         129
         129
         129
         129
         129
         129
         128
         128
         128
         128
         128
           0
         128
         128
         128
         128
         128
         128
         128
         128
         128
         128
         128
         128
         128
         128
         128
         128
         129
         129
         129
         129
         129
         129
         129
         129
         129
         129
         129
         129
         129
         129
         129
         129
         129
         129
         129
         128
         128
         128
         128
           0
         128
         128
         128
         128
         128
         128
         128
         128
         128
         128
         128
         128
         128
         128
         128
         129
         129
         129
         129
         129
         129
         129
         130
         130
         130
         130
         130
         130
         130
         130
         130
         130
         129
         129
         129
         129
         128
         128
         128
           0
         128
         128
         128
         128
         128
         128
         128
         128
         128
         128
         128
         128
         128
         128
         129
         129
         129
         129
         129
         129
         130
         130
         130
         130
         130
         130
         130
         130
         130
         130
         130
         130
         130
         129
         129
         129
         129
         128
         128
           0
         128
         128
         128
         128
         128
         128
         128
         128
         128
         128
         128
         128
         128
         128
         129
         129
         129
         129
         129
         130
         130
         130
         130
         130
         130
         131
         131
         131
         131
         131
         130
         130
         130
         130
         129
         129
         129
         128
         128
           0
         128
         128
         128
         128
         128
         128
         128
         128
         128
         128
         128
         128
         128
         129
         129
         129
         129
         129
         130
         130
         130
         130
         130
         131
         131
         131
         131
         131
         131
         131
         131
         131
         131
         130
         130
         129
         129
         129
         128
           0
         128
         128
         128
         128
         128
         128
         128
         128
         128
         128
         128
         128
         128
         129
         129
         129
         129
         129
         130
         130
         130
         131
         131
         131
         131
         132
         132
         132
         132
         132
         132
         131
         131
         131
         130
         130
         129
         129
         128
           0
         128
         128
         128
         128
         128
         128
         128
         128
         128
         128
         128
         128
         128
         129
         129
         129
         129
         130
         130
         130
         131
         131
         131
         132
         132
         132
         132
         132
         132
         132
         132
         132
         132
         131
         131
         130
         130
         129
         128
           0
         128
         128
         128
         128
         128
         128
         128
         128
         128
         128
         128
         128
         128
         129
         129
         129
         129
         130
         130
         130
         131
         131
         132
         132
         132
         133
         133
         133
         133
         133
         133
         133
         132
         132
         131
         131
         130
         129
         128
           0
         128
         127
         127
         127
         128
         128
         128
         128
         128
         128
         128
         128
         128
         129
         129
         129
         129
         130
         130
         131
         131
         131
         132
         132
         133
         133
         134
         134
         134
         134
         134
         134
         133
         133
         132
         131
         130
         129
         128
           0
         128
         127
         127
         127
         127
         127
         127
         128
         128
         128
         128
         128
         128
         128
         129
         129
         129
         130
         130
         131
         131
         132
         132
         133
         133
         134
         134
         135
         135
         135
         135
         135
         134
         133
         133
         132
         131
         130
         129
           0
         128
         127
         127
         127
         127
         127
         127
         127
         127
         128
         128
         128
         128
         128
         129
         129
         129
         130
         130
         131
         131
         132
         133
         133
         134
         135
         135
         136
         136
         136
         136
         136
         135
         134
         133
         132
         131
         130
         129
           0
         128
         127
         127
         127
         127
         127
         127
         127
         127
         127
         127
         128
         128
         128
         128
         129
         129
         130
         130
         131
         132
         132
         133
         134
         135
         135
         136
         137
         137
         138
         137
         137
         136
         136
         134
         133
         132
         130
         129
           0
         128
         127
         127
         127
         127
         127
         127
         127
         127
         127
         127
         127
         128
         128
         128
         129
         129
         130
         130
         131
         132
         132
         133
         134
         135
         136
         137
         138
         139
         139
         139
         139
         138
         137
         135
         134
         132
         131
         129
           0
         128
         127
         127
         127
         127
         127
         127
         127
         127
         127
         127
         127
         127
         128
         128
         128
         129
         129
         130
         131
         132
         133
         134
         135
         136
         137
         138
         140
         141
         141
         141
         141
         140
         138
         137
         135
         133
         131
         129
           0
         128
         127
         127
         127
         127
         127
         127
         126
         126
         126
         127
         127
         127
         127
         127
         128
         128
         129
         130
         131
         132
         133
         134
         135
         137
         138
         140
         141
         143
         144
         144
         143
         142
         140
         138
         136
         134
         132
         130
           0
         128
         127
         127
         127
         127
         126
         126
         126
         126
         126
         126
         126
         126
         127
         127
         127
         128
         129
         129
         130
         131
         132
         134
         135
         137
         139
         141
         143
         145
         147
         148
         147
         145
         142
         139
         137
         134
         132
         130
           0
         128
         127
         127
         127
         126
         126
         126
         126
         126
         126
         126
         126
         126
         126
         126
         127
         127
         128
         129
         130
         131
         132
         134
         135
         137
         139
         142
         145
         148
         152
         154
         151
         148
         144
         141
         138
         135
         132
         130
           0
         128
         127
         127
         126
         126
         126
         126
         125
         125
         125
         125
         125
         125
         125
         126
         126
         127
         127
         128
         129
         130
         132
         133
         135
         137
         140
         143
         146
         151
         157
         163
         157
         151
         146
         142
         138
         135
         132
         130
           0
         128
         127
         127
         126
         126
         125
         125
         125
         125
         124
         124
         124
         124
         125
         125
         125
         126
         127
         127
         128
         130
         131
         133
         135
         137
         139
         143
         147
         153
         163
         186
         163
         152
         146
         142
         138
         135
         132
         130
           0
         128
         127
         126
         126
         125
         125
         125
         124
         124
         124
         124
         123
         124
         124
         124
         124
         125
         126
         127
         128
         129
         130
         132
         134
         136
         138
         141
         145
         150
         156
         163
         156
         150
         145
         141
         138
         135
         132
         130
           0
         128
         127
         126
         126
         125
         125
         124
         124
         123
         123
         123
         123
         123
         123
         123
         123
         124
         125
         125
         126
         128
         129
         131
         132
         135
         137
         140
         143
         146
         150
         152
         150
         146
         143
         140
         137
         134
         132
         130
           0
         128
         127
         126
         125
         125
         124
         123
         123
         122
         122
         122
         122
         121
         121
         122
         122
         123
         123
         124
         125
         126
         128
         129
         131
         133
         135
         137
         140
         142
         145
         146
         145
         143
         141
         138
         136
         134
         132
         129
           0
         128
         127
         126
         125
         124
         123
         123
         122
         122
         121
         121
         120
         120
         120
         120
         121
         121
         122
         123
         124
         125
         126
         128
         129
         131
         133
         135
         137
         139
         140
         141
         141
         140
         138
         136
         135
         133
         131
         129
           0
         128
         127
         126
         125
         124
         123
         122
         121
         121
         120
         119
         119
         119
         119
         119
         119
         119
         120
         121
         122
         123
         124
         126
         127
         129
         131
         133
         134
         136
         137
         138
         138
         137
         136
         135
         133
         132
         130
         129
           0
         128
         126
         125
         124
         123
         122
         121
         120
         119
         119
         118
         118
         117
         117
         117
         117
         118
         118
         119
         120
         121
         123
         124
         126
         127
         129
         130
         132
         133
         134
         135
         135
         135
         134
         133
         132
         131
         130
         129
           0
         128
         126
         125
         124
         123
         121
         120
         119
         118
         117
         117
         116
         115
         115
         115
         115
         116
         116
         117
         118
         119
         121
         122
         124
         125
         127
         128
         129
         131
         132
         132
         133
         132
         132
         132
         131
         130
         129
         128
           0
         128
         126
         125
         123
         122
         121
         119
         118
         117
         116
         115
         114
         114
         113
         113
         113
         113
         114
         115
         116
         117
         118
         120
         121
         123
         125
         126
         127
         128
         129
         130
         131
         131
         131
         130
         130
         129
         129
         128
           0
         128
         126
         124
         123
         121
         120
         118
         117
         116
         114
         113
         112
         111
         111
         111
         111
         111
         111
         112
         114
         115
         116
         118
         119
         121
         123
         124
         125
         127
         127
         128
         129
         129
         129
         129
         129
         129
         128
         128
           0
         128
         126
         124
         122
         121
         119
         117
         116
         114
         113
         111
         110
         109
         108
         108
         108
         108
         109
         110
         111
         112
         114
         116
         117
         119
         121
         122
         123
         125
         126
         127
         127
         128
         128
         128
         128
         128
         128
         128
           0
         128
         126
         124
         122
         120
         118
         116
         114
         113
         111
         109
         108
         106
         105
         105
         105
         105
         106
         107
         108
         110
         112
         113
         115
         117
         119
         120
         122
         123
         124
         125
         126
         127
         127
         127
         127
         128
         128
         128
           0
         128
         125
         123
         121
         119
         117
         115
         113
         111
         109
         107
         105
         103
         102
         101
         101
         101
         102
         104
         105
         107
         109
         111
         113
         115
         117
         119
         120
         122
         123
         124
         125
         125
         126
         127
         127
         127
         127
         127
           0
         128
         125
         123
         121
         119
         116
         114
         112
         109
         107
         104
         102
         100
          98
          97
          97
          97
          98
         100
         102
         104
         107
         109
         111
         113
         115
         117
         119
         120
         122
         123
         124
         125
         125
         126
         126
         127
         127
         127
           0
         128
         125
         123
         121
         118
         116
         113
         110
         108
         105
         102
          99
          96
          94
          92
          91
          92
          94
          96
          99
         101
         104
         107
         109
         112
         114
         116
         118
         119
         121
         122
         123
         124
         125
         125
         126
         126
         127
         127
           0
         128
         125
         123
         120
         118
         115
         112
         109
         106
         103
          99
          96
          92
          89
          86
          85
          86
          88
          92
          95
          99
         102
         105
         108
         110
         113
         115
         117
         118
         120
         121
         122
         123
         124
         125
         125
         126
         127
         127
           0
         128
         125
         122
         120
         117
         114
         111
         108
         105
         101
          97
          92
          88
          83
          79
          77
          79
          82
          87
          92
          96
         100
         103
         106
         109
         112
         114
         116
         117
         119
         120
         122
         123
         124
         124
         125
         126
         126
         127
           0
         128
         125
         122
         120
         117
         114
         111
         107
         104
          99
          95
          89
          83
          76
          69
          65
          69
          76
          82
          88
          94
          98
         102
         105
         108
         111
         113
         115
         117
         118
         120
         121
         122
         123
         124
         125
         126
         126
         127
           0
         128
         125
         122
         120
         117
         114
         110
         107
         103
          98
          93
          87
          79
          69
          57
          45
          57
          69
          79
          86
          92
          97
         101
         104
         108
         110
         113
         115
         116
         118
         119
         121
         122
         123
         124
         125
         125
         126
         127
           0
         128
         125
         122
         120
         117
         114
         110
         107
         103
          98
          93
          86
          78
          65
          45
           0
          45
          65
          77
          85
          91
          96
         101
         104
         107
         110
         112
         114
         116
         118
         119
         121
         122
         123
         124
         125
         125
         126
         127
           0
         128
         125
         122
         120
         117
         114
         111
         107
         103
          99
          94
          87
          80
          70
          57
          45
          57
          69
          79
          86
          92
          97
         101
         104
         107
         110
         112
         114
         116
         118
         119
         121
         122
         123
         124
         125
         125
         126
         127
           0
         128
         125
         123
         120
         117
         114
         111
         108
         104
         100
          95
          90
          84
          77
          70
          66
          70
          76
          83
          89
          94
          98
         102
         105
         108
         111
         113
         115
         116
         118
         119
         121
         122
         123
         124
         125
         125
         126
         127
           0
         128
         125
         123
         120
         118
         115
         112
         109
         106
         102
          98
          93
          89
          84
          80
          78
          80
          83
          88
          92
          96
         100
         103
         106
         109
         111
         113
         115
         117
         118
         120
         121
         122
         123
         124
         125
         125
         126
         127
           0
         128
         125
         123
         121
         118
         116
         113
         110
         107
         104
         101
          97
          93
          90
          88
          87
          87
          90
          93
          96
          99
         102
         105
         108
         110
         112
         114
         116
         117
         119
         120
         121
         122
         123
         124
         125
         125
         126
         127
           0
         128
         125
         123
         121
         119
         117
         114
         112
         109
         107
         104
         101
          98
          96
          94
          93
          94
          95
          97
         100
         102
         105
         107
         109
         111
         113
         115
         117
         118
         119
         120
         121
         122
         123
         124
         125
         126
         126
         127
           0
         128
         126
         124
         122
         120
         118
         116
         114
         111
         109
         107
         104
         102
         101
          99
          99
          99
         100
         102
         103
         105
         107
         109
         111
         113
         115
         116
         118
         119
         120
         121
         122
         123
         124
         124
         125
         126
         126
         127
           0
         128
         126
         124
         123
         121
         119
         117
         115
         113
         111
         110
         108
         106
         105
         104
         104
         104
         104
         105
         107
         108
         110
         112
         113
         115
         116
         117
         119
         120
         121
         122
         122
         123
         124
         125
         125
         126
         126
         127
           0
         128
         126
         125
         123
         122
         120
         119
         117
         116
         114
         112
         111
         110
         109
         108
         108
         108
         108
         109
         110
         111
         113
         114
         115
         116
         118
         119
         120
         121
         122
         122
         123
         124
         124
         125
         126
         126
         127
         127
           0
         128
         126
         125
         124
         123
         121
         120
         119
         118
         116
         115
         114
         113
         112
         112
         112
         112
         112
         113
         113
         114
         115
         116
         117
         118
         119
         120
         121
         122
         122
         123
         124
         124
         125
         125
         126
         126
         127
         127
           0
         128
         127
         126
         125
         124
         123
         122
         121
         120
         119
         118
         117
         116
         116
         115
         115
         115
         115
         116
         116
         117
         118
         118
         119
         120
         121
         122
         122
         123
         123
         124
         124
         125
         125
         126
         126
         127
         127
         127
           0
         128
         127
         126
         125
         125
         124
         123
         122
         122
         121
         120
         120
         119
         119
         118
         118
         118
         119
         119
         119
         120
         120
         121
         121
         122
         122
         123
         123
         124
         124
         125
         125
         126
         126
         126
         126
         127
         127
         127
           0
         128
         127
         127
         126
         126
         125
         125
         124
         124
         123
         123
         122
         122
         122
         122
         121
         122
         122
         122
         122
         122
         123
         123
         123
         124
         124
         124
         125
         125
         125
         126
         126
         126
         126
         127
         127
         127
         127
         127
           0
         128
         127
         127
         127
         127
         126
         126
         126
         126
         125
         125
         125
         125
         125
         125
         125
         125
         125
         125
         125
         125
         125
         125
         125
         126
         126
         126
         126
         126
         126
         127
         127
         127
         127
         127
         127
         127
         127
         127
